<?xml version="1.0" encoding="UTF-8" standalone="no"?>
<svg xmlns:svg="http://www.w3.org/2000/svg" xmlns="http://www.w3.org/2000/svg" width="32px" height="32px"
   viewBox="0 0 256 256"> <g label="icon" groupmode="layer" id="layer1">
   <path
      style="fill:none;stroke:#000000;stroke-width:16;stroke-linecap:round;stroke-linejoin:round;stroke-miterlimit:4;stroke-dasharray:none;stroke-opacity:1"
      d="M 48.000002,16 H 208 c 17.728,0 32,14.272 32,32 v 160 c 0,17.728 -14.272,32 -32,32 H 48.000002 c -17.728,0 -32,-14.272 -32,-32 V 48 c 0,-17.728 14.272,-32 32,-32 z"
      id="rect873" />
   <path
      style="fill:none;stroke:#000000;stroke-width:16;stroke-linecap:round;stroke-linejoin:round;stroke-miterlimit:4;stroke-dasharray:none;stroke-opacity:1"
      d="M 64.000006,64.000001 H 79.999993" id="path870" nodetypes="cc" connector-curvature="0" />
   <path transform="rotate(90)"
      style="fill:none;stroke:#000000;stroke-width:16;stroke-linecap:round;stroke-linejoin:round;stroke-miterlimit:4;stroke-dasharray:none;stroke-opacity:1"
      d="m 79.999996,-96.000015 a 16,16 0 0 1 -16,16 16,16 0 0 1 -16,-16 16,16 0 0 1 16,-16.000005 16,16 0 0 1 16,16.000005 z"
      id="path878" />
   <path
      style="fill:none;stroke:#000000;stroke-width:16;stroke-linecap:round;stroke-linejoin:round;stroke-miterlimit:4;stroke-dasharray:none;stroke-opacity:1"
      d="m 112.00001,64.000353 79.99997,-3.52e-4" id="path870-3" nodetypes="cc"
      connector-curvature="0" />
   <path
      style="fill:none;stroke:#000000;stroke-width:16;stroke-linecap:round;stroke-linejoin:round;stroke-miterlimit:4;stroke-dasharray:none;stroke-opacity:1"
      d="M 191.99998,128 H 176" id="path870-6" nodetypes="cc" connector-curvature="0" />
   <path transform="matrix(0,1,1,0,0,0)"
      style="fill:none;stroke:#000000;stroke-width:16;stroke-linecap:round;stroke-linejoin:round;stroke-miterlimit:4;stroke-dasharray:none;stroke-opacity:1"
      d="m 144,159.99997 a 16,16 0 0 1 -16,16 16,16 0 0 1 -16,-16 16,16 0 0 1 16,-16 16,16 0 0 1 16,16 z"
      id="path878-7" />
   <path
      style="fill:none;stroke:#000000;stroke-width:16;stroke-linecap:round;stroke-linejoin:round;stroke-miterlimit:4;stroke-dasharray:none;stroke-opacity:1"
      d="M 143.99998,128.00035 64.000006,128" id="path870-3-5" nodetypes="cc"
      connector-curvature="0" />
   <path
      style="fill:none;stroke:#000000;stroke-width:16;stroke-linecap:round;stroke-linejoin:round;stroke-miterlimit:4;stroke-dasharray:none;stroke-opacity:1"
      d="M 64.000006,192.00001 H 79.999993" id="path870-35" nodetypes="cc" connector-curvature="0" />
   <path transform="rotate(90)"
      style="fill:none;stroke:#000000;stroke-width:16;stroke-linecap:round;stroke-linejoin:round;stroke-miterlimit:4;stroke-dasharray:none;stroke-opacity:1"
      d="m 208,-96.000015 a 16,16 0 0 1 -16,16 16,16 0 0 1 -16,-16 16,16 0 0 1 16,-16.000005 16,16 0 0 1 16,16.000005 z"
      id="path878-6" />
   <path
      style="fill:none;stroke:#000000;stroke-width:16;stroke-linecap:round;stroke-linejoin:round;stroke-miterlimit:4;stroke-dasharray:none;stroke-opacity:1"
      d="m 112.00001,192.00036 79.99997,-3.5e-4" id="path870-3-2" nodetypes="cc"
      connector-curvature="0" />
   </g>
</svg>